<?xml version="1.0" encoding="UTF-8"?>
<svg id="Calque_2" xmlns="http://www.w3.org/2000/svg" version="1.1" viewBox="0 0 259.06 195.25">
  <!-- Generator: Adobe Illustrator 29.1.0, SVG Export Plug-In . SVG Version: 2.1.0 Build 142)  -->
  <path fill="currentColor" d="M201.42,12.08l-6.23,15.41c1.64-.19,3.31-.29,5.01-.29,24.11,0,43.72,19.62,43.72,43.72s-19.62,43.71-43.72,43.71c-12.67,0-24.1-5.42-32.08-14.05l-6.1,15.09c10.29,8.8,23.63,14.1,38.18,14.1,32.46,0,58.86-26.4,58.86-58.85s-25.74-58.2-57.64-58.84ZM144.92,30.99v15.14h-63.95l6.12-15.14h57.83ZM86.72,77.53c-6.95,0-13.63,1.21-19.83,3.43l-9.19,22.76c7.73-6.87,17.89-11.05,29.02-11.05,24.11,0,43.71,19.61,43.71,43.71s-19.61,43.72-43.71,43.72c-13.91,0-26.32-6.55-34.33-16.71l-6.29,15.55c10.58,10.1,24.89,16.3,40.62,16.3s31.13-6.69,41.8-17.46l17.05-42.21c-.43-32.09-26.67-58.05-58.85-58.05ZM34.59,0v120.32l-15.14,37.46V15.14H0L6.12,0h28.48ZM164.62,150.27l3.39,5.75,3.34-5.75h2.51l-4.8,7.8v5.03h-2.25v-5.03l-4.82-7.8h2.61ZM189.75,150.27v1.94h-6.99v3.36h6.47v1.83h-6.47v3.76h7.11v1.94h-9.36v-12.83h9.23ZM203.04,150.27l4.94,12.83h-2.41l-1.2-3.4h-5.12l-1.2,3.4h-2.32l4.92-12.83h2.39ZM201.8,152.48l-1.94,5.52h3.92l-1.92-5.52h-.05ZM220.8,150.27c2.57,0,4.15,1.2,4.15,3.47,0,1.62-.74,2.75-2.12,3.23v.04c1.24.16,1.9,1.19,1.9,2.75,0,1.71.25,2.82.7,3.34h-2.41c-.22-.32-.34-.83-.34-1.83,0-1.51-.22-2.37-.63-2.8-.41-.43-1.02-.65-1.85-.65h-3.38v5.28h-2.25v-12.83h6.22ZM220.57,156.11c1.35,0,2.14-.67,2.14-2.05s-.65-1.96-2.16-1.96h-3.72v4.01h3.74ZM241.94,154.06h-2.25v-.02c-.14-1.51-1.04-2.25-2.77-2.25-1.35,0-2.35.56-2.35,1.67,0,.84.56,1.4,1.65,1.69l3.4.9c1.17.31,2.68,1.33,2.68,3.32,0,2.53-2.08,4.02-5.1,4.02-3.22,0-5.3-1.64-5.35-4.58h2.25c.02,1.83,1.29,2.75,3.25,2.75,1.72,0,2.71-.81,2.71-1.94,0-.84-.39-1.33-1.06-1.58-.72-.27-1.31-.41-3.7-1.02-2.03-.5-2.96-1.62-2.96-3.29,0-2.61,2.39-3.77,4.69-3.77,2.78,0,4.91,1.51,4.92,4.1Z"/>
</svg>