<svg width="31" height="24" viewBox="0 0 31 24" fill="none" xmlns="http://www.w3.org/2000/svg">
  <path d="M15.9099 0.00585938H10.1682V0.630561C11.6832 0.630561 11.8221 1.68525 11.3402 2.84135C9.40863 7.44954 4.54088 19.0876 3.97325 20.2762C3.2586 21.7649 2.26218 23.3957 0.751221 23.3957V24.0001H6.19069V23.3957C4.95333 23.3957 4.58172 21.6838 5.19427 20.2803C5.80682 18.8767 6.88491 16.3982 6.88491 16.3982H12.5326V20.6737C12.5326 23.2699 11.5526 23.3957 10.1682 23.3957V24.0001H18.2784V23.3957C17.1227 23.3957 15.918 23.3186 15.918 20.6737C15.9221 19.3026 15.9099 0.00585938 15.9099 0.00585938ZM12.5367 15.526H7.30962L12.5367 3.34842V15.526Z" fill="black"/>
  <path d="M27.5618 0H27.5087H17.6548V0.632814C19.0718 0.632814 20.0274 1.53336 20.0274 3.31011V20.4407C20.0274 23.1748 18.9452 23.3938 17.6629 23.3938V23.9983H25.7732V23.3938C24.3071 23.3938 23.4454 23.0896 23.4454 20.4529V13.3824H27.7742C29.1667 13.3824 30.2489 12.4291 30.2489 10.2589V2.98964C30.2448 1.25752 29.3382 0 27.5618 0ZM26.9166 11.484C26.9166 12.1289 26.6716 12.4737 26.1693 12.4737H23.4414L23.4454 7.23274V6.02391L23.4414 0.884318H26.1693C26.6716 0.884318 26.9166 1.26157 26.9166 2.01608V11.484Z" fill="black"/>
  <path d="M14.8008 0.219526C16.5772 0.219526 14.5607 0 14.5607 0H18.2886V0.632814C16.8715 0.632814 15.916 1.53336 15.916 3.31011V20.4407C15.916 23.1748 16.9981 23.3938 18.2804 23.3938V23.9983L14.5607 23.3938C16.0268 23.3938 13.5975 23.0774 13.5975 20.4407L13.2641 13.2813L12.8291 12.513C12.8291 11.1958 13.6991 12.4032 13.2641 10.0982V2.85384C13.2682 1.12171 13.0244 0.219526 14.8008 0.219526Z" fill="black"/>
</svg>

